<svg xmlns="http://www.w3.org/2000/svg" width="1200" height="800" viewBox="0 0 1200 800" role="img"><rect width="1200" height="800" fill="#ffffff"/><defs>
        <marker id="arrow" viewBox="0 0 10 10" refX="9" refY="5" markerWidth="8" markerHeight="8" orient="auto-start-reverse"><path d="M 0 0 L 10 5 L 0 10 z" fill="#111827"/></marker>
        <marker id="arrowBlue" viewBox="0 0 10 10" refX="9" refY="5" markerWidth="8" markerHeight="8" orient="auto-start-reverse"><path d="M 0 0 L 10 5 L 0 10 z" fill="#2563eb"/></marker>
        <marker id="arrowRed" viewBox="0 0 10 10" refX="9" refY="5" markerWidth="8" markerHeight="8" orient="auto-start-reverse"><path d="M 0 0 L 10 5 L 0 10 z" fill="#dc2626"/></marker>
        </defs><line x1="120" y1="680" x2="1080" y2="680" stroke="#111827" stroke-width="5" stroke-linecap="round" marker-end="url(#arrow)" opacity="1"/><line x1="120" y1="680" x2="120" y2="90" stroke="#111827" stroke-width="5" stroke-linecap="round" marker-end="url(#arrow)" opacity="1"/><text x="1060" y="758" text-anchor="end" font-family="Arial,DejaVu Sans,sans-serif" font-size="32" font-weight="600" fill="#111827" style="">n</text><text x="75" y="95" text-anchor="middle" font-family="Arial,DejaVu Sans,sans-serif" font-size="32" font-weight="600" fill="#111827" style="">uₙ</text><line x1="120.0" y1="672" x2="120.0" y2="688" stroke="#111827" stroke-width="3" stroke-linecap="round" opacity="1"/><text x="120.0" y="720" text-anchor="middle" font-family="Arial,DejaVu Sans,sans-serif" font-size="22" font-weight="500" fill="#111827" style="">0</text><line x1="360.0" y1="672" x2="360.0" y2="688" stroke="#111827" stroke-width="3" stroke-linecap="round" opacity="1"/><text x="360.0" y="720" text-anchor="middle" font-family="Arial,DejaVu Sans,sans-serif" font-size="22" font-weight="500" fill="#111827" style="">5</text><line x1="600.0" y1="672" x2="600.0" y2="688" stroke="#111827" stroke-width="3" stroke-linecap="round" opacity="1"/><text x="600.0" y="720" text-anchor="middle" font-family="Arial,DejaVu Sans,sans-serif" font-size="22" font-weight="500" fill="#111827" style="">10</text><line x1="744.0" y1="672" x2="744.0" y2="688" stroke="#111827" stroke-width="3" stroke-linecap="round" opacity="1"/><text x="744.0" y="720" text-anchor="middle" font-family="Arial,DejaVu Sans,sans-serif" font-size="22" font-weight="500" fill="#111827" style="">13</text><line x1="1080.0" y1="672" x2="1080.0" y2="688" stroke="#111827" stroke-width="3" stroke-linecap="round" opacity="1"/><text x="1080.0" y="720" text-anchor="middle" font-family="Arial,DejaVu Sans,sans-serif" font-size="22" font-weight="500" fill="#111827" style="">20</text><line x1="112" y1="680.0" x2="128" y2="680.0" stroke="#111827" stroke-width="3" stroke-linecap="round" opacity="1"/><text x="104" y="688.0" text-anchor="end" font-family="Arial,DejaVu Sans,sans-serif" font-size="22" font-weight="500" fill="#111827" style="">0</text><line x1="112" y1="555.0588235294117" x2="128" y2="555.0588235294117" stroke="#111827" stroke-width="3" stroke-linecap="round" opacity="1"/><text x="104" y="563.0588235294117" text-anchor="end" font-family="Arial,DejaVu Sans,sans-serif" font-size="22" font-weight="500" fill="#111827" style="">18</text><line x1="112" y1="332.94117647058823" x2="128" y2="332.94117647058823" stroke="#111827" stroke-width="3" stroke-linecap="round" opacity="1"/><text x="104" y="340.94117647058823" text-anchor="end" font-family="Arial,DejaVu Sans,sans-serif" font-size="22" font-weight="500" fill="#111827" style="">50</text><line x1="112" y1="124.70588235294122" x2="128" y2="124.70588235294122" stroke="#111827" stroke-width="3" stroke-linecap="round" opacity="1"/><text x="104" y="132.70588235294122" text-anchor="end" font-family="Arial,DejaVu Sans,sans-serif" font-size="22" font-weight="500" fill="#111827" style="">80</text><polyline points="168.0,666.1 216.0,638.4 264.0,610.6 312.0,582.8 360.0,555.1 408.0,527.3 456.0,499.5 504.0,471.8 552.0,444.0 600.0,416.2 648.0,388.5 696.0,360.7 744.0,332.9 792.0,305.2 840.0,277.4 888.0,249.6 936.0,221.9 984.0,194.1 1032.0,166.4 1080.0,138.6" fill="none" stroke="#2563eb" stroke-width="6" stroke-linecap="round" stroke-linejoin="round" opacity="1"/><circle cx="360.0" cy="555.0588235294117" r="11" fill="#dc2626" stroke="#dc2626" stroke-width="4" opacity="1"/><text x="378.0" y="537.0588235294117" text-anchor="start" font-family="Arial,DejaVu Sans,sans-serif" font-size="28" font-weight="600" fill="#dc2626" style="">P(5,18)</text><circle cx="744.0" cy="332.94117647058823" r="11" fill="#dc2626" stroke="#dc2626" stroke-width="4" opacity="1"/><text x="762.0" y="314.94117647058823" text-anchor="start" font-family="Arial,DejaVu Sans,sans-serif" font-size="28" font-weight="600" fill="#dc2626" style="">Q(13,50)</text></svg>