<svg xmlns="http://www.w3.org/2000/svg" width="1200" height="800" viewBox="0 0 1200 800" role="img"><rect width="1200" height="800" fill="#ffffff"/><defs>
        <marker id="arrow" viewBox="0 0 10 10" refX="9" refY="5" markerWidth="8" markerHeight="8" orient="auto-start-reverse"><path d="M 0 0 L 10 5 L 0 10 z" fill="#111827"/></marker>
        <marker id="arrowBlue" viewBox="0 0 10 10" refX="9" refY="5" markerWidth="8" markerHeight="8" orient="auto-start-reverse"><path d="M 0 0 L 10 5 L 0 10 z" fill="#2563eb"/></marker>
        <marker id="arrowRed" viewBox="0 0 10 10" refX="9" refY="5" markerWidth="8" markerHeight="8" orient="auto-start-reverse"><path d="M 0 0 L 10 5 L 0 10 z" fill="#dc2626"/></marker>
        </defs><text x="100" y="190" text-anchor="start" font-family="Arial,DejaVu Sans,sans-serif" font-size="38" font-weight="600" fill="#111827" style="">A</text><text x="100" y="340" text-anchor="start" font-family="Arial,DejaVu Sans,sans-serif" font-size="38" font-weight="600" fill="#111827" style="">B</text><text x="100" y="530" text-anchor="start" font-family="Arial,DejaVu Sans,sans-serif" font-size="38" font-weight="600" fill="#111827" style="">C</text><rect x="260" y="170" width="180" height="120" rx="18" fill="#f3f4f6" stroke="#2563eb" stroke-width="5" opacity="1"/><text x="350.0" y="242.0" text-anchor="middle" font-family="Arial,DejaVu Sans,sans-serif" font-size="30" font-weight="600" fill="#2563eb" style="">NAND</text><rect x="260" y="440" width="180" height="120" rx="18" fill="#f3f4f6" stroke="#059669" stroke-width="5" opacity="1"/><text x="350.0" y="512.0" text-anchor="middle" font-family="Arial,DejaVu Sans,sans-serif" font-size="30" font-weight="600" fill="#059669" style="">OR</text><rect x="700" y="300" width="180" height="120" rx="18" fill="#f3f4f6" stroke="#7c3aed" stroke-width="5" opacity="1"/><text x="790.0" y="372.0" text-anchor="middle" font-family="Arial,DejaVu Sans,sans-serif" font-size="30" font-weight="600" fill="#7c3aed" style="">AND</text><line x1="130" y1="180" x2="260" y2="205" stroke="#111827" stroke-width="5" stroke-linecap="round" marker-end="url(#arrow)" opacity="1"/><line x1="130" y1="330" x2="260" y2="255" stroke="#111827" stroke-width="5" stroke-linecap="round" marker-end="url(#arrow)" opacity="1"/><line x1="130" y1="330" x2="210" y2="330" stroke="#111827" stroke-width="5" stroke-linecap="round" opacity="1"/><line x1="210" y1="330" x2="210" y2="480" stroke="#111827" stroke-width="5" stroke-linecap="round" opacity="1"/><line x1="210" y1="480" x2="260" y2="480" stroke="#111827" stroke-width="5" stroke-linecap="round" marker-end="url(#arrow)" opacity="1"/><line x1="130" y1="520" x2="260" y2="520" stroke="#111827" stroke-width="5" stroke-linecap="round" marker-end="url(#arrow)" opacity="1"/><line x1="440" y1="230" x2="620" y2="230" stroke="#111827" stroke-width="5" stroke-linecap="round" opacity="1"/><line x1="620" y1="230" x2="620" y2="335" stroke="#111827" stroke-width="5" stroke-linecap="round" opacity="1"/><line x1="620" y1="335" x2="700" y2="335" stroke="#111827" stroke-width="5" stroke-linecap="round" marker-end="url(#arrow)" opacity="1"/><line x1="440" y1="500" x2="620" y2="500" stroke="#111827" stroke-width="5" stroke-linecap="round" opacity="1"/><line x1="620" y1="500" x2="620" y2="385" stroke="#111827" stroke-width="5" stroke-linecap="round" opacity="1"/><line x1="620" y1="385" x2="700" y2="385" stroke="#111827" stroke-width="5" stroke-linecap="round" marker-end="url(#arrow)" opacity="1"/><line x1="880" y1="360" x2="1080" y2="360" stroke="#111827" stroke-width="6" stroke-linecap="round" marker-end="url(#arrow)" opacity="1"/><text x="1100" y="372" text-anchor="start" font-family="Arial,DejaVu Sans,sans-serif" font-size="40" font-weight="600" fill="#111827" style="">Y</text></svg>